<svg width="1200" height="750" viewBox="0 0 1200 750" fill="none" xmlns="http://www.w3.org/2000/svg">
<rect width="1200" height="750" rx="36" fill="#0B1220"/>
<rect x="54" y="52" width="1092" height="646" rx="28" fill="#111827" stroke="#1F2937"/>
<rect x="92" y="102" width="340" height="48" rx="12" fill="#F3F4F6" fill-opacity="0.95"/>
<rect x="92" y="188" width="612" height="22" rx="11" fill="#3B82F6"/>
<rect x="92" y="246" width="520" height="70" rx="18" fill="#1F2937"/>
<rect x="92" y="336" width="520" height="70" rx="18" fill="#1F2937"/>
<rect x="92" y="426" width="520" height="70" rx="18" fill="#1F2937"/>
<rect x="92" y="516" width="520" height="70" rx="18" fill="#1F2937"/>
<rect x="92" y="612" width="160" height="54" rx="16" fill="#3B82F6"/>
<circle cx="935" cy="252" r="114" fill="#1E293B"/>
<path d="M886 245C886 213 909 191 943 191C974 191 997 212 997 242C997 267 984 282 962 294C945 303 937 314 937 334V341" stroke="#F8FAFC" stroke-width="18" stroke-linecap="round"/>
<circle cx="938" cy="391" r="15" fill="#F8FAFC"/>
<rect x="792" y="402" width="210" height="22" rx="11" fill="#1F2937"/>
<rect x="792" y="450" width="180" height="22" rx="11" fill="#1F2937"/>
<rect x="792" y="498" width="224" height="22" rx="11" fill="#1F2937"/>
<text x="94" y="90" fill="#F9FAFB" font-family="Arial, Helvetica, sans-serif" font-size="56" font-weight="700">Quizzz</text>
<text x="94" y="666" fill="#9CA3AF" font-family="Arial, Helvetica, sans-serif" font-size="30">Quiz builder • attempts • clean dashboard</text>
</svg>
